<svg xmlns="http://www.w3.org/2000/svg" width="1200" height="675" viewBox="0 0 1200 675" role="img" aria-labelledby="title desc">
  <title id="title">Telegram Report PRO case review preview</title>
  <desc id="desc">A moderation case review preview for Telegram Report PRO showing evidence, review status, and truthful reporting controls.</desc>
  <rect width="1200" height="675" fill="#fbf6f4"/>
  <rect x="76" y="62" width="1048" height="550" rx="24" fill="#ffffff" stroke="#ead8d0"/>
  <rect x="76" y="62" width="1048" height="72" rx="24" fill="#4b1f19"/>
  <text x="120" y="108" font-family="Segoe UI, Arial, sans-serif" font-size="27" font-weight="700" fill="#ffffff">Telegram Report PRO</text>
  <text x="927" y="105" font-family="Segoe UI, Arial, sans-serif" font-size="16" fill="#f0cfc4">v1.0.0</text>
  <rect x="118" y="170" width="380" height="386" rx="18" fill="#fff3ef"/>
  <text x="150" y="214" font-family="Segoe UI, Arial, sans-serif" font-size="20" font-weight="700" fill="#4b1f19">Case evidence</text>
  <rect x="150" y="246" width="300" height="78" rx="12" fill="#ffffff" stroke="#ead8d0"/>
  <text x="176" y="279" font-family="Segoe UI, Arial, sans-serif" font-size="15" fill="#60443e">Scam channel report</text>
  <text x="176" y="304" font-family="Segoe UI, Arial, sans-serif" font-size="13" fill="#8a706a">Evidence attached and reviewed</text>
  <rect x="150" y="354" width="300" height="44" rx="10" fill="#d94f3d"/>
  <text x="176" y="382" font-family="Segoe UI, Arial, sans-serif" font-size="15" font-weight="700" fill="#ffffff">Truthful report checklist</text>
  <text x="150" y="446" font-family="Segoe UI, Arial, sans-serif" font-size="14" fill="#60443e">Operator: Safety review</text>
  <text x="150" y="482" font-family="Segoe UI, Arial, sans-serif" font-size="14" fill="#60443e">Status: Ready for submission</text>
  <rect x="544" y="170" width="534" height="386" rx="18" fill="#ffffff" stroke="#ead8d0"/>
  <text x="582" y="214" font-family="Segoe UI, Arial, sans-serif" font-size="20" font-weight="700" fill="#4b1f19">Review workflow</text>
  <line x1="622" y1="273" x2="968" y2="273" stroke="#ead8d0" stroke-width="8" stroke-linecap="round"/>
  <circle cx="622" cy="273" r="24" fill="#d94f3d"/>
  <circle cx="795" cy="273" r="24" fill="#d94f3d"/>
  <circle cx="968" cy="273" r="24" fill="#f0cfc4"/>
  <text x="582" y="354" font-family="Segoe UI, Arial, sans-serif" font-size="15" fill="#60443e">1. Evidence collected</text>
  <text x="582" y="397" font-family="Segoe UI, Arial, sans-serif" font-size="15" fill="#60443e">2. Abuse category confirmed</text>
  <text x="582" y="440" font-family="Segoe UI, Arial, sans-serif" font-size="15" fill="#60443e">3. Submission pending operator approval</text>
</svg>
